<?xml version="1.0" encoding="UTF-8"?>
<svg id="Layer_2" data-name="Layer 2" xmlns="http://www.w3.org/2000/svg" viewBox="0 0 1622.85 254.03">
  <defs>
    <style>
      .cls-1 {
        isolation: isolate;
      }

      .cls-2 {
        fill: #015426;
      }
    </style>
  </defs>
  <g id="Layer_2-2" data-name="Layer 2">
    <g>
      <g id="Layer_1-2" data-name="Layer 1-2">
        <g class="cls-1">
          <g class="cls-1">
            <path class="cls-2" d="M495.61,231.17h-45.19l-15.93-46.35h-74.75l-16.51,46.35h-44.9L380.01,17.08h35.05l80.54,214.1ZM422.31,146.58l-24.92-71.27-25.49,71.27h50.41Z"/>
            <path class="cls-2" d="M557.31,231.17h-40.85V73.28h39.11v21.15c9.46-16.99,23.95-25.49,43.46-25.49,6.37,0,12.75,1.16,19.12,3.48l-3.48,39.11c-6.95-2.12-13.23-3.19-18.83-3.19-11.98,0-21.39,4.01-28.25,12.02-6.86,8.02-10.28,19.95-10.28,35.78v75.03Z"/>
            <path class="cls-2" d="M744.17,189.74l12.17,32.16c-13.14,8.69-28.68,13.04-46.64,13.04s-31.87-5.26-41.14-15.79c-9.27-10.53-13.9-26.03-13.9-46.5v-65.18h-25.78v-34.19h26.07V17.37h40.56v55.91h52.15v34.19h-52.15v62.58c0,18.54,7.43,27.81,22.31,27.81,8.11,0,16.9-2.7,26.36-8.11Z"/>
            <path class="cls-2" d="M822.1,30.4c0,7.15-2.42,13.14-7.24,17.96-4.83,4.83-10.82,7.24-17.96,7.24s-13.14-2.41-17.96-7.24c-4.83-4.83-7.24-10.82-7.24-17.96s2.41-13.04,7.24-17.67c4.82-4.82,10.81-7.24,17.96-7.24s13.13,2.42,17.96,7.24c4.82,4.64,7.24,10.53,7.24,17.67ZM817.18,73.28v157.89h-40.85V73.28h40.85Z"/>
            <path class="cls-2" d="M867.59,73.28v-3.48c0-21.05,5.31-37.23,15.93-48.53,10.62-11.3,25.3-16.95,44.04-16.95,14.49,0,28.39,3.48,41.72,10.43l-11.3,31.87c-8.69-4.25-16.61-6.37-23.76-6.37-8.11,0-14.44,2.37-18.98,7.1-4.54,4.73-6.81,11.44-6.81,20.13v5.8h49.25v34.19h-49.25v123.71h-40.85v-123.71h-24.34v-34.19h24.34ZM1021.13,48.37c-4.83,4.63-10.82,6.95-17.96,6.95s-13.23-2.32-18.25-6.95c-4.83-4.83-7.24-10.82-7.24-17.96s2.41-13.13,7.24-17.96c5.02-4.83,11.1-7.24,18.25-7.24s13.13,2.42,17.96,7.24c4.83,4.83,7.24,10.82,7.24,17.96s-2.42,13.14-7.24,17.96ZM1023.45,231.17h-40.85V73.28h40.85v157.89Z"/>
            <path class="cls-2" d="M1113.26,235.23c-27.43,0-49.15-10.14-65.18-30.42l21.73-25.78c5.6,6.76,12.31,12.12,20.14,16.08,7.82,3.96,15.69,5.94,23.61,5.94,6.18,0,11.34-1.45,15.5-4.35,4.15-2.9,6.23-6.56,6.23-11.01,0-5.6-3.77-10.14-11.3-13.62-2.32-.96-8.6-3.38-18.83-7.24-9.08-3.28-15.84-6.08-20.28-8.4-18.16-8.69-27.23-22.31-27.23-40.85,0-13.71,5.41-25.11,16.23-34.19,10.62-8.88,24.91-13.33,42.87-13.33,22.4,0,40.85,7.53,55.34,22.6l-20.28,26.36c-11.01-10.43-23.08-15.64-36.21-15.64-5.22,0-9.52,1.3-12.89,3.91-3.38,2.61-5.07,5.75-5.07,9.42,0,6.57,4.63,11.4,13.9,14.49,20.66,7.73,33.32,12.85,37.95,15.35,17.77,9.27,26.65,22.6,26.65,39.98,0,14.87-5.79,27.04-17.38,36.5-11.2,9.47-26.36,14.19-45.48,14.19Z"/>
            <path class="cls-2" d="M1250.57,30.4c0,7.15-2.42,13.14-7.24,17.96-4.83,4.83-10.82,7.24-17.96,7.24s-13.14-2.41-17.96-7.24c-4.83-4.83-7.24-10.82-7.24-17.96s2.41-13.04,7.24-17.67c4.82-4.82,10.81-7.24,17.96-7.24s13.13,2.42,17.96,7.24c4.82,4.64,7.24,10.53,7.24,17.67ZM1245.65,73.28v157.89h-40.85V73.28h40.85Z"/>
            <path class="cls-2" d="M1273.75,152.08c0-23.37,7.92-42.97,23.76-58.81,16.03-16.22,36.31-24.33,60.84-24.33s44.81,8.11,60.84,24.33c15.84,15.84,23.76,35.45,23.76,58.81s-7.92,43.27-23.76,59.1c-16.03,16.04-36.31,24.05-60.84,24.05s-44.81-8.01-60.84-24.05c-15.84-15.83-23.76-35.53-23.76-59.1ZM1327.06,184.24c8.3,8.69,18.73,13.04,31.29,13.04s22.5-4.35,31-13.04c8.5-9.08,12.75-19.8,12.75-32.16s-4.25-22.98-12.75-31.87c-8.5-8.69-18.83-13.04-31-13.04s-22.99,4.35-31.29,13.04c-8.31,8.5-12.46,19.12-12.46,31.87s4.15,23.28,12.46,32.16Z"/>
            <path class="cls-2" d="M1512.47,231.17h-40.85V73.28h39.98v22.02c4.25-7.92,10.81-14.29,19.7-19.12,8.88-4.82,18.83-7.24,29.84-7.24,17.19,0,31.77,5.7,43.75,17.09,11.97,11.4,17.96,27.62,17.96,48.67v96.47h-40.85v-85.46c0-12.36-3-21.97-8.98-28.83-5.99-6.85-14.1-10.28-24.33-10.28-10.82,0-19.56,3.72-26.22,11.15-6.66,7.44-9.99,17.05-9.99,28.83v84.6Z"/>
          </g>
        </g>
      </g>
      <g>
        <path class="cls-2" d="M84.45,158.07c1.35-6.62,14.33-20.22,21.49-21.31,8.47-1.29,31.94,2.74,24.53-14.95-2.57-6.13-27.95-5.27-34.32-4.5-4.64.56-7.66,2.56-11.1,5.48-3.16,2.69-29.98,29.47-30.97,31.45-2.55,5.1-4.44,23.68-1.03,27.61,2.28,2.62,7.11,3.25,10.45,8.21,3.03,4.5,4.86,10.6,4.07,16-4.17,28.47-49.32,25.24-45.3-7.97,1.66-13.7,15.34-15.02,16.41-18.1,1.71-9.99-2.87-24.58,2.94-32.96,3.86-5.57,38.04-38.74,43.24-40.99,16.91-7.34,42.18,2.02,61.7-5.97,32.03-13.11,58.33-75.99,9.73-84.28-12.17-2.08-61.77-2.47-73.86-.55-2.59.41-3.62,1.31-5.6,2.68-2.33,1.62-24.15,23.31-24.89,24.91-1.45,3.15,1.2,8.98.4,14.11-4.3,27.71-48.71,21.93-43.78-9.24,1.33-8.38,10.78-16.02,18.94-17.02,6.29-.77,9.74,1.78,15.48,1.83C51.04,22.98,67.27,3.18,79.71,1.48c16.06-2.19,59.16-1.72,75.82-.11,42.53,4.12,60.25,47.56,57.97,85.65l27.05,46.21c.06,9.95-13.26,11.03-20.8,11.75-2.6,2.78,12.24,18.95-1.37,19.35-1.16,3.73,2.27,2.06,3.21,4.39,3.65,9.07-2.99,9.99-4.3,14.52-2.41,8.29,2.9,18.19-3.68,26.7-15.41,19.95-68.82-10.5-73.82,26.98-.45,3.36,1.14,16.82-2.18,17.1-2.21.18-17.7-10.63-20.1-13.02-20.14-20.02-17.59-45.95-5.98-69.63,1.69-3.45,10.21-15.43,10.24-17.47.11-8.35-21.27-5.17-23.4,9.83-2.72,19.13,3.46,48.22-.42,65.86-.62,2.84-2.94,6.13-6,6.56-2.05,1.03-7.52-1.98-7.52-3.5v-74.57h.02ZM24.02,45.85c-5.79,5.78.38,21.63,11.51,14.95,12.49-7.5-2.91-23.53-11.51-14.95ZM41.25,193.54c-7.87,2.34-8.85,16.15,0,18.8,17.07,5.12,17.14-23.9,0-18.8Z"/>
        <path class="cls-2" d="M75.56,76.71c-5.33,5.12-28.76,25.81-30.5,29.61-1.39,3.04,1.7,13.56.41,19.66-5.31,25.08-48.47,20.49-45.3-9.38,1.86-17.52,19.18-22.23,34.18-19.53l45.26-44.66c5.83-5.59,20.72-.48,25.57-3.43,1.46-.89,3.91-7.77,6.15-10.42,11.1-13.13,34.26-10.24,42.2,4.84,13.53,25.67-17.11,49.87-39.39,32.49-9.52-7.43-3.63-14.2-20.81-12.51-9.56.94-11.89,7.67-17.77,13.32h0ZM122.22,47.39c-11.64,11.65,7.8,27.71,17.5,16.81,10.57-11.89-6.81-27.5-17.5-16.81ZM21.93,109.25c-10.73,1.65-12.07,21.42,2.37,20.46,13.46-.9,10.51-22.44-2.37-20.46Z"/>
      </g>
    </g>
  </g>
</svg>