<svg width="30" height="27" viewBox="0 0 30 27" fill="none" xmlns="http://www.w3.org/2000/svg">
<path d="M0 5.7863V6.24392C0 12.6528 0 19.0618 0 25.4707C0 26.3349 0.267527 26.6024 1.12819 26.6024H28.8032C29.7554 26.6024 29.9982 26.3595 29.9982 25.4038V5.7863H0ZM0.0228806 4.06498H30C30 3.36096 30 2.67278 30 1.98812C30 0.977856 29.7747 0.75609 28.7504 0.75609H1.24963C1.08884 0.74813 0.927675 0.75166 0.76738 0.766651C0.36609 0.828252 0.0475213 1.03946 0.0316809 1.46187C4.60984e-08 2.32077 0.0228806 3.18143 0.0228806 4.06498Z" fill="#2BD5BE"/>
<path d="M0 5.7863V6.24392V25.4707C0 26.3349 0.267527 26.6024 1.12819 26.6024H28.8032C29.7554 26.6024 29.9982 26.3595 29.9982 25.4038V5.7863H0Z" fill="#2BD5BE"/>
<path d="M0.0228806 4.06498H30V1.98812C30 0.977856 29.7747 0.75609 28.7504 0.75609H1.24963C1.08884 0.74813 0.927675 0.75166 0.76738 0.766651C0.36609 0.828252 0.0475213 1.03946 0.0316809 1.46187C4.60984e-08 2.32077 0.0228806 3.18143 0.0228806 4.06498Z" fill="#2BD5BE"/>
<path d="M8.18731 16.1222C9.14302 17.0673 10.0002 17.9069 10.845 18.7623C11.0066 18.9072 11.132 19.0881 11.2111 19.2903C11.2705 19.459 11.2683 19.6432 11.2049 19.8105C11.1414 19.9777 11.0208 20.117 10.8643 20.2037C10.7071 20.3172 10.5132 20.3679 10.3206 20.3461C10.1279 20.3243 9.95032 20.2315 9.82239 20.0858C8.71533 18.9858 7.59594 17.8805 6.49767 16.7629C6.41606 16.6873 6.35118 16.5954 6.30719 16.4933C6.2632 16.3911 6.24107 16.2809 6.24223 16.1696C6.24339 16.0584 6.26781 15.9486 6.31393 15.8474C6.36004 15.7462 6.42682 15.6557 6.50999 15.5819C7.5977 14.473 8.69538 13.3736 9.80303 12.2835C10.1867 11.9069 10.6831 11.9192 11.0139 12.2695C11.0905 12.349 11.1504 12.443 11.1902 12.5459C11.2299 12.6489 11.2487 12.7588 11.2454 12.8691C11.2422 12.9794 11.2169 13.088 11.1711 13.1884C11.1253 13.2889 11.0599 13.3791 10.9787 13.454C10.2008 14.2513 9.41054 15.038 8.61676 15.8177C8.48172 15.9302 8.33814 16.032 8.18731 16.1222Z" fill="#373D47"/>
<path d="M21.8331 16.2643L19.2547 13.6912C19.1346 13.5823 19.0228 13.4646 18.9203 13.3391C18.7989 13.1808 18.7392 12.9838 18.7521 12.7847C18.7651 12.5856 18.8498 12.398 18.9907 12.2567C19.1271 12.1099 19.3141 12.0203 19.514 12.0059C19.7139 11.9916 19.9118 12.0535 20.0678 12.1793C20.2485 12.3285 20.419 12.4896 20.5782 12.6615C21.5017 13.5826 22.4245 14.5049 23.3468 15.4283C23.8748 15.9563 23.8748 16.3787 23.3644 16.8997C22.34 17.9288 21.3139 18.9549 20.2861 19.978C19.8284 20.4321 19.3462 20.4656 18.9766 20.0819C18.6351 19.7299 18.6809 19.2318 19.1051 18.8023C19.8584 18.0437 20.6134 17.2852 21.3773 16.5354C21.519 16.4289 21.6719 16.338 21.8331 16.2643Z" fill="#373D47"/>
<path d="M17.4865 12.1407C17.4584 12.2269 17.4144 12.3959 17.3492 12.5578C16.3038 15.1791 15.256 17.7992 14.2058 20.4182C14.1847 20.471 14.1618 20.5256 14.1372 20.5784C13.9066 21.0976 13.4648 21.307 13.0107 21.1064C12.5566 20.9057 12.393 20.4728 12.5901 19.9641C13.0319 18.8324 13.4877 17.7077 13.9383 16.5813C14.5625 15.0078 15.1914 13.4343 15.825 11.8608C15.9623 11.5088 16.1559 11.2413 16.5607 11.1956C17.0905 11.1357 17.5147 11.5212 17.4865 12.1407Z" fill="#373D47"/>
<path d="M23.3383 2.43803C23.3305 2.6598 23.2363 2.86973 23.0758 3.02298C22.9153 3.17623 22.7013 3.26065 22.4794 3.25822C22.3694 3.2553 22.2612 3.23044 22.1609 3.1851C22.0607 3.13975 21.9706 3.07484 21.8958 2.99416C21.8211 2.91349 21.7632 2.81869 21.7255 2.71533C21.6879 2.61197 21.6714 2.50213 21.6768 2.39227C21.6791 2.28625 21.7023 2.18173 21.745 2.08468C21.7877 1.98764 21.8492 1.89998 21.9259 1.82674C22.0026 1.75349 22.093 1.69609 22.1919 1.65783C22.2908 1.61957 22.3962 1.6012 22.5023 1.60377C22.6122 1.60284 22.7211 1.62376 22.8229 1.66534C22.9246 1.70691 23.0171 1.7683 23.0949 1.84593C23.1727 1.92356 23.2342 2.01589 23.276 2.11754C23.3178 2.21919 23.339 2.32813 23.3383 2.43803Z" fill="#373D47"/>
<path d="M24.9846 1.60212C25.0949 1.59804 25.2049 1.61647 25.3078 1.65628C25.4108 1.6961 25.5046 1.75646 25.5835 1.83369C25.6623 1.91093 25.7247 2.00341 25.7666 2.10551C25.8086 2.20762 25.8294 2.3172 25.8276 2.42758C25.8286 2.53756 25.8076 2.64663 25.7661 2.74847C25.7245 2.85031 25.6632 2.94288 25.5856 3.02081C25.508 3.09875 25.4157 3.1605 25.314 3.20248C25.2123 3.24446 25.1033 3.26583 24.9934 3.26536C24.779 3.25947 24.5746 3.17309 24.421 3.0234C24.2674 2.87371 24.1758 2.67168 24.1644 2.4575C24.1613 2.34729 24.1802 2.23758 24.2199 2.13473C24.2596 2.03188 24.3194 1.93794 24.3957 1.85836C24.472 1.77878 24.5633 1.71515 24.6644 1.67116C24.7655 1.62718 24.8743 1.60371 24.9846 1.60212Z" fill="#373D47"/>
<path d="M27.4901 3.25763C27.3803 3.25655 27.2719 3.2334 27.1713 3.18956C27.0706 3.14573 26.9798 3.08209 26.9043 3.00245C26.8288 2.92281 26.77 2.82878 26.7316 2.72597C26.6931 2.62316 26.6757 2.51367 26.6804 2.40401C26.6807 2.29424 26.7034 2.18569 26.7472 2.08503C26.791 1.98438 26.8549 1.89375 26.9351 1.81873C27.0152 1.74371 27.1098 1.68589 27.2132 1.64882C27.3165 1.61175 27.4263 1.59622 27.5358 1.60318C27.7504 1.60735 27.9546 1.69636 28.1037 1.85074C28.2528 2.00512 28.3347 2.21229 28.3314 2.42689C28.3311 2.53681 28.3092 2.6456 28.2667 2.74697C28.2242 2.84835 28.162 2.94031 28.0838 3.01755C28.0056 3.09478 27.9129 3.15576 27.8109 3.19697C27.709 3.23817 27.6 3.25879 27.4901 3.25763Z" fill="#373D47"/>
</svg>
