<svg width="30" height="26" viewBox="0 0 30 26" fill="none" xmlns="http://www.w3.org/2000/svg">
<path d="M26.1728 4.50334L21.0392 8.75154L19.9922 7.48648L25.1258 3.23828L26.1728 4.50334Z" fill="#2BD5BE"/>
<path d="M27.1874 0C25.6968 0 24.4883 1.20909 24.4883 2.70013C24.4883 4.19065 25.6968 5.39921 27.1874 5.39921C28.6784 5.39921 29.8864 4.19065 29.8864 2.70013C29.8864 1.20909 28.6784 0 27.1874 0ZM27.1874 4.09191C26.4186 4.09191 25.7956 3.46888 25.7956 2.70013C25.7956 1.93138 26.4186 1.3073 27.1874 1.3073C27.9566 1.3073 28.5797 1.93138 28.5797 2.70013C28.5797 3.46888 27.9566 4.09191 27.1874 4.09191Z" fill="#2BD5BE"/>
<path d="M19.0289 6.87971C17.5384 6.91614 16.3594 8.15374 16.3953 9.64373C16.4318 11.1342 17.6694 12.3127 19.1599 12.2768C20.6504 12.2409 21.8294 11.0033 21.793 9.51278C21.7571 8.02227 20.5189 6.8438 19.0289 6.87971ZM19.1277 10.97C18.3589 10.9885 17.7211 10.3808 17.7021 9.61205C17.6836 8.84329 18.2919 8.20548 19.0606 8.187C19.8288 8.168 20.4672 8.77624 20.4857 9.54446C20.5041 10.3132 19.8964 10.9516 19.1277 10.97Z" fill="#2BD5BE"/>
<path d="M4.68695 17.0412H0.93718C0.421335 17.0412 0 17.4631 0 17.9789V24.5413C0 25.0571 0.421335 25.4785 0.93718 25.4785H4.68695C5.2028 25.4785 5.62413 25.0571 5.62413 24.5413V17.9789C5.62413 17.4631 5.2028 17.0412 4.68695 17.0412Z" fill="#2BD5BE"/>
<path d="M17.1245 9.53851L12.2422 6.52844L13.1044 5.13086L17.9867 8.14092L17.1245 9.53851Z" fill="#2BD5BE"/>
<path d="M3.09685 9.6139C1.60845 9.52837 0.332299 10.6646 0.246765 12.153C0.160703 13.6414 1.29852 14.9175 2.78639 15.0036C4.27479 15.0891 5.55094 13.9524 5.637 12.464C5.72253 10.9761 4.58525 9.69997 3.09685 9.6139ZM2.86136 13.6984C2.09367 13.6541 1.5076 12.9957 1.55195 12.2285C1.5963 11.4608 2.25418 10.8747 3.02187 10.9191C3.78904 10.9629 4.37616 11.6213 4.33181 12.389C4.28746 13.1567 3.62906 13.7428 2.86136 13.6984Z" fill="#2BD5BE"/>
<path d="M10.2473 6.8437L4.66272 11.8189L3.57031 10.5924L9.15485 5.61719L10.2473 6.8437Z" fill="#2BD5BE"/>
<path d="M13.8266 4.83588C13.6561 3.35487 12.3166 2.29256 10.8361 2.4631C9.35454 2.63364 8.29275 3.97262 8.46329 5.4531C8.6333 6.93411 9.97281 7.99695 11.4538 7.82588C12.9348 7.65587 13.9971 6.31689 13.8266 4.83588ZM9.76214 5.30368C9.67397 4.54021 10.222 3.8496 10.986 3.76195C11.7495 3.67378 12.4396 4.22183 12.5272 4.9853C12.6154 5.7493 12.0673 6.43938 11.3039 6.52756C10.5399 6.6152 9.85032 6.06768 9.76214 5.30368Z" fill="#2BD5BE"/>
<path d="M12.8666 11.4161H9.11687C8.60102 11.4161 8.17969 11.8379 8.17969 12.3533V24.5398C8.17969 25.0556 8.60102 25.4775 9.11687 25.4775H12.8666C13.3825 25.4775 13.8038 25.0556 13.8038 24.5398V12.3533C13.8038 11.8379 13.3825 11.4161 12.8666 11.4161Z" fill="#2BD5BE"/>
<path d="M20.9916 14.2324H17.2419C16.7266 14.2324 16.3047 14.6543 16.3047 15.1696V24.544C16.3047 25.0599 16.7266 25.4817 17.2419 25.4817H20.9916C21.5075 25.4817 21.9288 25.0599 21.9288 24.544V15.1696C21.9288 14.6543 21.5075 14.2324 20.9916 14.2324Z" fill="#2BD5BE"/>
<path d="M29.062 8.47852H25.3122C24.7963 8.47852 24.375 8.90038 24.375 9.4157V24.4148C24.375 24.9306 24.7963 25.352 25.3122 25.352H29.062C29.5778 25.352 29.9991 24.9306 29.9991 24.4148V9.4157C29.9991 8.90038 29.5778 8.47852 29.062 8.47852Z" fill="#2BD5BE"/>
</svg>
