<svg width="30" height="30" viewBox="0 0 30 30" fill="none" xmlns="http://www.w3.org/2000/svg">
<path d="M29.5303 14.1126C29.5001 14.0924 29.4689 14.0736 29.4367 14.0566L27.3078 12.9102L15.5016 19.1609C15.1879 19.327 14.8124 19.327 14.4987 19.1609L2.69263 12.9102L0.56365 14.0566C0.0462221 14.3312 -0.150654 14.9733 0.124006 15.4908C0.141082 15.5229 0.15979 15.5542 0.180068 15.5844L15.0002 23.4305L29.8202 15.5844C30.1466 15.098 30.0169 14.439 29.5303 14.1126Z" fill="#2BD5BE"/>
<path d="M29.8697 20.9201C29.7705 20.7363 29.6196 20.5854 29.4358 20.4862L27.3069 19.3398L15.5007 25.5905C15.1871 25.7567 14.8115 25.7567 14.4979 25.5905L2.6917 19.3398L0.562724 20.4862C0.0419685 20.7673 -0.152271 21.4172 0.128793 21.938C0.228047 22.1219 0.378906 22.2727 0.562724 22.3719L14.4914 29.872C14.8084 30.0427 15.1901 30.0427 15.5071 29.872L29.4358 22.3719C29.9565 22.0908 30.1508 21.4409 29.8697 20.9201Z" fill="#2BD5BE"/>
<path d="M29.5303 7.68416C29.5001 7.66388 29.4689 7.64517 29.4367 7.6281L15.508 0.128023C15.191 -0.0426743 14.8094 -0.0426743 14.4923 0.128023L0.56365 7.6281C0.0462221 7.90276 -0.150654 8.54486 0.124006 9.06229C0.141082 9.09443 0.15979 9.1257 0.180068 9.15596L15.0002 17.0021L29.8202 9.15596C30.1466 8.66948 30.0169 8.01055 29.5303 7.68416Z" fill="#2BD5BE"/>
</svg>
