<svg width="43" height="43" viewBox="0 0 43 43" fill="none" xmlns="http://www.w3.org/2000/svg">
<path d="M23.7985 2.65338C25.2408 4.20681 26.1424 6.16995 26.8498 8.22765C27.9794 11.5037 28.5343 14.8884 28.6902 18.3419C28.711 18.7857 28.8636 19.0693 29.2492 19.2758C29.6805 19.5081 30.0861 19.7809 30.4983 20.0405C31.1684 20.4502 31.5267 21.0474 31.5275 21.8311C31.5358 25.1216 31.5356 28.4079 31.5267 31.69C31.5259 31.933 31.428 32.2548 31.2522 32.3875C31.141 32.4721 30.7778 32.3211 30.5895 32.1876C29.2501 31.2396 27.9247 30.2726 26.5985 29.3063C26.3395 29.1283 26.1213 28.8973 25.9581 28.6287C25.795 28.3601 25.6907 28.0599 25.6522 27.7479C25.6066 27.3706 25.4614 27.1923 25.06 27.1939C22.5 27.2028 19.9381 27.2041 17.3742 27.1981C17.0424 27.1981 16.8566 27.3142 16.8201 27.6559C16.7347 28.4546 16.2785 29.0103 15.6449 29.4664C14.4431 30.3364 13.2447 31.2131 12.0446 32.0848C11.9065 32.1937 11.7588 32.2897 11.6033 32.3717C11.2334 32.5476 10.9946 32.4265 10.9324 32.0176C10.9121 31.8428 10.9052 31.6668 10.9116 31.4909C10.9166 28.3575 10.9274 25.2299 10.9083 22.1007C10.9017 21.127 11.2724 20.4345 12.1109 19.9261C14.2714 18.6214 13.7987 19.1622 13.9969 16.854C14.327 13.019 14.9897 9.2511 16.6509 5.74034C17.1665 4.62765 17.8339 3.59184 18.634 2.66251C20.2007 0.890121 22.0527 0.922466 23.7985 2.65338ZM19.149 8.32303C18.8539 8.6023 18.6169 8.93717 18.4516 9.30838C18.2863 9.67959 18.1961 10.0798 18.1861 10.486C18.1761 10.8922 18.2465 11.2964 18.3932 11.6753C18.54 12.0542 18.7602 12.4004 19.0412 12.6939C20.2305 13.9711 22.1622 14.0267 23.4552 12.8199C24.7042 11.6538 24.7407 9.65335 23.5348 8.3927C22.3695 7.17433 20.4138 7.14282 19.149 8.32303Z" fill="#2BD5BE"/>
<path d="M21.4867 38.5492C21.1915 38.2092 20.9178 37.9803 20.7569 37.6933C19.4432 35.2865 18.5806 32.7369 18.36 29.9884C18.3135 29.4128 18.525 29.2195 19.0757 29.2262C20.5598 29.2439 22.0435 29.2442 23.527 29.227C24.0777 29.2204 24.2652 29.4194 24.2527 29.9942C24.2196 31.4014 23.9084 32.7882 23.3371 34.0747C22.7789 35.3412 22.2946 36.6367 21.7745 37.9181C21.7016 38.0873 21.6219 38.2532 21.4867 38.5492Z" fill="#2BD5BE"/>
</svg>
